<?xml version="1.0" encoding="UTF-8"?>
<svg id="Layer_2" data-name="Layer 2" xmlns="http://www.w3.org/2000/svg" viewBox="0 0 736 219.76">
  <defs>
    <style>
      .cls-1 {
        fill: #fff;
      }

      .cls-2 {
        fill: #fbb040;
      }
    </style>
  </defs>
  <path class="cls-2" d="M253,95.94h-3.94c-2.42-3.94-6.8-6.42-11.44-6.42-7.37,0-13.16,5.97-13.16,13.35s5.98,13.09,13.48,13.09c4.77,0,9.47-2.67,11.44-7.12h4.7c-2.48,6.93-9.22,11.31-16.53,11.31-9.47,0-17.29-7.88-17.29-17.23,0-4.77,1.84-9.15,4.89-12.27,3.18-3.24,7.37-5.34,12.2-5.34s8.64,1.91,11.7,5.34v-4.77h3.94v10.04Z"/>
  <path class="cls-2" d="M271.12,93.33c2.92-5.21,7.82-8.01,13.79-8.01,5.34,0,11.19,2.42,14.37,8.01,1.27,2.22,2.73,5.21,2.73,9.41,0,9.6-7.56,17.42-17.1,17.42-5.66,0-11.12-2.92-13.79-7.95v15.51h5.59v3.94h-15.38v-3.94h5.59v-37.88h-5.59v-3.94h9.79v7.44Zm26.7,9.41c0-8.26-6.23-13.86-13.16-13.48-7.25,.38-13.6,5.21-13.6,13.41,0,7.44,5.91,13.54,13.35,13.54s13.41-6.1,13.41-13.48Z"/>
  <path class="cls-2" d="M318.47,92.13c2.22-4.2,6.23-6.8,11.06-6.8,4,0,7.37,1.65,9.98,4.7,2.92,3.43,3.11,7.18,3.11,11.44v13.86h5.59v3.94h-15.38v-3.94h5.6v-12.14c0-3.11,.19-6.29-1.46-9.02-1.72-2.99-4.96-4.77-8.33-4.77-2.92,0-5.66,1.14-7.56,3.3-2.54,2.92-2.6,5.72-2.6,9.34v13.29h5.59v3.94h-15.38v-3.94h5.59v-37.5h-5.59v-3.94h9.79v18.24Z"/>
  <path class="cls-1" d="M366.14,93.33c2.73-4.96,7.56-8.01,13.21-8.01,9.72,0,17.47,7.75,17.47,17.48,0,3.62-1.27,7.06-2.8,9.54-2.35,3.88-8.01,7.82-14.17,7.82-5.71,0-10.85-2.8-13.71-7.82v6.93h-9.79v-3.94h5.59v-37.5h-5.59v-3.94h9.79v19.45Zm26.49,9.28c0-7.25-5.91-13.09-13.21-13.09s-13.46,5.72-13.46,13.28,6.1,13.16,13.52,13.16,13.15-6.04,13.15-13.35Z"/>
  <path class="cls-1" d="M432.16,113.67c-2.16,4.07-6.36,6.48-11.12,6.48s-9.34-3.12-11.38-6.48c-1.08-1.78-1.71-4.26-1.71-8.2v-15.64h-5.59v-3.94h9.79v17.99c0,3.11,.06,6.1,2.1,8.77,1.97,2.61,4.7,3.81,8.01,3.56,3.3-.25,5.85-1.65,7.5-3.62,2.29-2.73,2.42-5.15,2.42-8.58v-14.17h-5.59v-3.94h9.79v29.43h5.66v3.94h-9.85v-5.59Z"/>
  <path class="cls-1" d="M467.82,94.35c-.06-1.71-.89-3.11-2.16-4.07-1.27-.95-2.92-1.53-4.7-1.53-3.37,0-6.55,2.03-6.55,5.66,0,4.2,4,5.21,7.37,5.91,2.61,.51,5.28,1.08,7.57,2.48,2.67,1.53,4.13,4.26,4.13,7.31,0,2.16-.7,3.69-1.46,5.15-1.59,3.05-5.85,4.9-9.73,4.9s-7.24-1.46-9.28-4.9v4h-3.43v-9.53h3.43c.38,4.07,4,7.06,8.52,7.06,3.69,0,7.25-2.48,7.25-6.36,0-4.58-3.94-5.4-7.63-6.17-2.6-.57-5.21-1.08-7.5-2.48-2.48-1.59-3.94-4.13-3.94-7.06,0-2.29,.45-4.07,1.71-5.72,1.97-2.54,5.72-3.69,8.84-3.69s5.91,1.08,7.56,3.69v-3.11h3.43v8.45h-3.43Z"/>
  <path class="cls-1" d="M490.83,115.33h5.59v3.94h-15.51v-3.94h5.72v-25.49h-5.59v-3.94h9.79v29.43Zm0-34.9h-4.2v-6.55h4.2v6.55Z"/>
  <path class="cls-1" d="M512.62,91.74c2.1-4.13,6.61-6.42,11.19-6.42,3.75,0,9.34,2.03,11.51,6.42,.82,1.65,1.84,4.64,1.84,8.71v14.87h5.59v3.94h-15.38v-3.94h5.59v-13.35c0-2.99-.06-5.85-1.59-8.45-1.78-3.11-5.53-4.07-8.71-4.07-2.92,0-5.91,1.27-7.82,3.5-2.16,2.54-2.23,5.4-2.23,8.52v13.86h5.6v3.94h-15.38v-3.94h5.59v-25.49h-5.59v-3.94h9.79v5.85Z"/>
  <path class="cls-1" d="M581.15,109.92c-2.79,6.23-9.03,10.23-15.89,10.23-9.6,0-17.42-7.69-17.42-17.23s7.5-17.61,17.16-17.61,17.54,7.69,17.54,17.54v1.27h-30.51c.38,6.86,6.23,12.27,13.09,12.27,4.83,0,9.15-2.29,11.57-6.48h4.45Zm-2.54-9.22c-.95-6.8-6.87-11.57-13.67-11.57-6.42,0-12.14,5.28-12.9,11.57h26.57Z"/>
  <path class="cls-1" d="M609.24,94.35c-.06-1.71-.89-3.11-2.16-4.07-1.27-.95-2.92-1.53-4.7-1.53-3.37,0-6.55,2.03-6.55,5.66,0,4.2,4.01,5.21,7.37,5.91,2.61,.51,5.28,1.08,7.57,2.48,2.67,1.53,4.13,4.26,4.13,7.31,0,2.16-.7,3.69-1.46,5.15-1.59,3.05-5.85,4.9-9.73,4.9s-7.24-1.46-9.28-4.9v4h-3.43v-9.53h3.43c.38,4.07,4,7.06,8.52,7.06,3.69,0,7.25-2.48,7.25-6.36,0-4.58-3.94-5.4-7.63-6.17-2.61-.57-5.21-1.08-7.5-2.48-2.48-1.59-3.94-4.13-3.94-7.06,0-2.29,.44-4.07,1.71-5.72,1.97-2.54,5.72-3.69,8.84-3.69s5.91,1.08,7.56,3.69v-3.11h3.43v8.45h-3.43Z"/>
  <path class="cls-1" d="M641.34,94.35c-.06-1.71-.89-3.11-2.16-4.07-1.27-.95-2.92-1.53-4.7-1.53-3.37,0-6.55,2.03-6.55,5.66,0,4.2,4,5.21,7.37,5.91,2.61,.51,5.28,1.08,7.57,2.48,2.67,1.53,4.13,4.26,4.13,7.31,0,2.16-.7,3.69-1.46,5.15-1.59,3.05-5.85,4.9-9.72,4.9s-7.25-1.46-9.28-4.9v4h-3.43v-9.53h3.43c.38,4.07,4,7.06,8.52,7.06,3.69,0,7.25-2.48,7.25-6.36,0-4.58-3.94-5.4-7.63-6.17-2.61-.57-5.21-1.08-7.5-2.48-2.48-1.59-3.94-4.13-3.94-7.06,0-2.29,.45-4.07,1.72-5.72,1.97-2.54,5.72-3.69,8.84-3.69s5.91,1.08,7.56,3.69v-3.11h3.43v8.45h-3.43Z"/>
  <g>
    <path class="cls-1" d="M228.51,158.43c-3.17,0-5.52-2.41-5.52-5.46v-.03c0-3,2.35-5.49,5.55-5.49,1.98,0,3.17,.7,4.31,1.7l-.59,.58c-.97-.9-2.08-1.56-3.74-1.56-2.66,0-4.68,2.08-4.68,4.75v.03c0,2.68,2.04,4.78,4.69,4.78,1.6,0,2.69-.59,3.82-1.65l.55,.52c-1.17,1.11-2.44,1.85-4.41,1.85Z"/>
    <path class="cls-1" d="M244.9,158.43c-3.36,0-5.56-2.56-5.56-5.46v-.03c0-2.9,2.23-5.49,5.6-5.49s5.56,2.56,5.56,5.46t0,.03c0,2.9-2.23,5.49-5.59,5.49Zm4.74-5.49c0-2.62-2-4.78-4.74-4.78s-4.71,2.12-4.71,4.75v.03c0,2.62,2,4.78,4.74,4.78s4.71-2.12,4.71-4.75v-.03Z"/>
    <path class="cls-1" d="M262.08,154.29h-2.99v3.96h-.82v-10.62h4.02c2.44,0,4.12,1.2,4.12,3.24v.03c0,2.23-2.01,3.38-4.33,3.38Zm3.5-3.37c0-1.68-1.36-2.56-3.36-2.56h-3.14v5.2h3.04c2.06,0,3.45-1.03,3.45-2.61v-.03Z"/>
    <path class="cls-1" d="M273.81,158.25v-10.62h7.89v.73h-7.07v4.17h6.35v.73h-6.35v4.26h7.15v.73h-7.97Z"/>
    <path class="cls-1" d="M297.99,158.25l-7.81-9.44v9.44h-.79v-10.62h.78l7.66,9.24v-9.24h.79v10.62h-.62Z"/>
    <path class="cls-1" d="M314.79,158.25v-4.98h-7.1v4.98h-.83v-10.62h.83v4.91h7.1v-4.91h.82v10.62h-.82Z"/>
    <path class="cls-1" d="M333.15,158.25l-1.41-2.97h-6.54l-1.41,2.97h-.86l5.17-10.7h.79l5.17,10.7h-.9Zm-4.68-9.83l-2.93,6.14h5.85l-2.92-6.14Z"/>
    <path class="cls-1" d="M345.81,158.43c-3.5,0-5.58-2.47-5.58-5.46v-.03c0-2.87,2.17-5.49,5.48-5.49,1.81,0,2.95,.52,4.06,1.39l-.54,.59c-.87-.73-1.89-1.27-3.57-1.27-2.69,0-4.58,2.18-4.58,4.75v.03c0,2.74,1.79,4.79,4.75,4.79,1.41,0,2.73-.56,3.53-1.21v-3.05h-3.71v-.73h4.5v4.1c-1,.85-2.55,1.59-4.36,1.59Z"/>
    <path class="cls-1" d="M358.12,158.25v-10.62h7.89v.73h-7.07v4.17h6.36v.73h-6.36v4.26h7.15v.73h-7.97Z"/>
    <path class="cls-1" d="M382.28,158.25l-7.8-9.44v9.44h-.79v-10.62h.78l7.64,9.24v-9.24h.79v10.62h-.62Z"/>
    <path class="cls-1" d="M406.64,158.25h-4.82v-10.62h4.58c2.16,0,3.6,1.02,3.6,2.61v.03c0,1.44-.98,2.17-1.89,2.52,1.33,.33,2.5,1.06,2.5,2.53v.03c0,1.77-1.59,2.9-3.98,2.9Zm2.52-7.93c0-1.17-1-1.96-2.77-1.96h-3.74v4.17h3.66c1.66,0,2.85-.78,2.85-2.19v-.03Zm.62,5.01c0-1.3-1.19-2.06-3.38-2.06h-3.76v4.26h4.03c1.9,0,3.11-.83,3.11-2.17v-.03Z"/>
    <path class="cls-1" d="M422.6,158.42c-2.66,0-4.55-1.61-4.55-4.58v-6.2h.83v6.13c0,2.5,1.41,3.94,3.76,3.94s3.69-1.3,3.69-3.87v-6.2h.83v6.11c0,3.05-1.86,4.67-4.55,4.67Z"/>
    <path class="cls-1" d="M438.99,158.4c-1.78,0-3.14-.56-4.47-1.7l.54-.59c1.22,1.08,2.35,1.58,3.98,1.58s2.8-.89,2.8-2.11v-.03c0-1.12-.62-1.78-3.14-2.26-2.66-.52-3.74-1.38-3.74-2.99v-.03c0-1.58,1.51-2.79,3.57-2.79,1.61,0,2.68,.42,3.8,1.29l-.52,.62c-1.05-.86-2.09-1.2-3.31-1.2-1.63,0-2.71,.89-2.71,2v.03c0,1.12,.6,1.8,3.23,2.32,2.57,.5,3.64,1.38,3.64,2.93v.03c0,1.71-1.54,2.9-3.68,2.9Z"/>
    <path class="cls-1" d="M450.45,158.25v-10.62h.82v10.62h-.82Z"/>
    <path class="cls-1" d="M468.24,158.25l-7.81-9.44v9.44h-.79v-10.62h.78l7.65,9.24v-9.24h.79v10.62h-.62Z"/>
    <path class="cls-1" d="M477.12,158.25v-10.62h7.89v.73h-7.07v4.17h6.36v.73h-6.36v4.26h7.15v.73h-7.97Z"/>
    <path class="cls-1" d="M496.45,158.4c-1.78,0-3.14-.56-4.47-1.7l.54-.59c1.22,1.08,2.35,1.58,3.98,1.58s2.8-.89,2.8-2.11v-.03c0-1.12-.62-1.78-3.13-2.26-2.67-.52-3.74-1.38-3.74-2.99v-.03c0-1.58,1.51-2.79,3.57-2.79,1.62,0,2.68,.42,3.8,1.29l-.52,.62c-1.05-.86-2.09-1.2-3.31-1.2-1.63,0-2.71,.89-2.71,2v.03c0,1.12,.6,1.8,3.23,2.32,2.57,.5,3.65,1.38,3.65,2.93v.03c0,1.71-1.54,2.9-3.68,2.9Z"/>
    <path class="cls-1" d="M511.4,158.4c-1.78,0-3.14-.56-4.47-1.7l.54-.59c1.22,1.08,2.35,1.58,3.98,1.58s2.8-.89,2.8-2.11v-.03c0-1.12-.62-1.78-3.14-2.26-2.66-.52-3.74-1.38-3.74-2.99v-.03c0-1.58,1.51-2.79,3.57-2.79,1.62,0,2.68,.42,3.8,1.29l-.52,.62c-1.05-.86-2.09-1.2-3.31-1.2-1.63,0-2.71,.89-2.71,2v.03c0,1.12,.6,1.8,3.23,2.32,2.57,.5,3.64,1.38,3.64,2.93v.03c0,1.71-1.54,2.9-3.68,2.9Z"/>
    <path class="cls-1" d="M541.57,158.25l-1.41-2.97h-6.55l-1.41,2.97h-.85l5.17-10.7h.79l5.17,10.7h-.9Zm-4.68-9.83l-2.93,6.14h5.85l-2.91-6.14Z"/>
    <path class="cls-1" d="M554.17,158.43c-3.17,0-5.51-2.41-5.51-5.46v-.03c0-3,2.35-5.49,5.55-5.49,1.98,0,3.17,.7,4.31,1.7l-.58,.58c-.97-.9-2.08-1.56-3.74-1.56-2.66,0-4.68,2.08-4.68,4.75v.03c0,2.68,2.05,4.78,4.69,4.78,1.6,0,2.7-.59,3.82-1.65l.55,.52c-1.17,1.11-2.44,1.85-4.41,1.85Z"/>
    <path class="cls-1" d="M575.07,158.25l-1.41-2.97h-6.54l-1.41,2.97h-.86l5.16-10.7h.79l5.17,10.7h-.9Zm-4.68-9.83l-2.93,6.14h5.85l-2.92-6.14Z"/>
    <path class="cls-1" d="M586.98,158.25h-3.69v-10.62h3.69c3.49,0,5.89,2.29,5.89,5.28v.03c0,2.99-2.41,5.31-5.89,5.31Zm5.04-5.31c0-2.52-1.95-4.58-5.04-4.58h-2.87v9.16h2.87c3.09,0,5.04-2.02,5.04-4.55v-.03Z"/>
    <path class="cls-1" d="M600.64,158.25v-10.62h7.89v.73h-7.07v4.17h6.35v.73h-6.35v4.26h7.14v.73h-7.97Z"/>
    <path class="cls-1" d="M625.86,158.25v-9.22l-4.39,6.11h-.06l-4.39-6.11v9.22h-.79v-10.62h.78l4.45,6.28,4.45-6.28h.78v10.62h-.83Z"/>
    <path class="cls-1" d="M639.38,154.03v4.22h-.83v-4.2l-4.75-6.42h1.03l4.15,5.7,4.17-5.7h.98l-4.75,6.4Z"/>
  </g>
  <path class="cls-2" d="M190.17,159.76H90.12V59.71h100.05v100.05Zm-86.68-13.37h73.31V73.09H103.49v73.31Z"/>
</svg>