<svg width="100" height="100" viewBox="0 0 100 100" fill="none" xmlns="http://www.w3.org/2000/svg">
<circle cx="50" cy="50" r="50" fill="#FBB040"/>
<path d="M42.0852 58.8651V57.9716C42.1027 54.9058 42.3743 52.4619 42.8999 50.6399C43.4429 48.8179 44.2313 47.3464 45.2649 46.2251C46.2985 45.1039 47.5424 44.0878 48.9965 43.1768C50.0826 42.4761 51.0549 41.7491 51.9134 40.9957C52.7718 40.2424 53.455 39.4103 53.9631 38.4993C54.4711 37.5708 54.7251 36.5372 54.7251 35.3984C54.7251 34.1896 54.4361 33.1297 53.858 32.2188C53.2798 31.3078 52.5002 30.607 51.5192 30.1165C50.5556 29.6259 49.487 29.3807 48.3132 29.3807C47.1745 29.3807 46.0971 29.6347 45.081 30.1428C44.0649 30.6333 43.2327 31.3691 42.5845 32.3501C41.9363 33.3137 41.5859 34.5137 41.5334 35.9503H30.8118C30.8994 32.4465 31.7403 29.5559 33.3345 27.2784C34.9287 24.9834 37.0398 23.2753 39.6676 22.1541C42.2955 21.0154 45.1948 20.446 48.3658 20.446C51.852 20.446 54.9354 21.0241 57.6158 22.1804C60.2962 23.3191 62.3984 24.9747 63.9226 27.147C65.4467 29.3194 66.2088 31.9384 66.2088 35.0043C66.2088 37.054 65.8672 38.8759 65.184 40.4702C64.5182 42.0469 63.581 43.4484 62.3722 44.6747C61.1634 45.8835 59.7356 46.9785 58.0888 47.9595C56.7048 48.7829 55.5661 49.6413 54.6726 50.5348C53.7966 51.4283 53.1397 52.4619 52.7017 53.6357C52.2813 54.8094 52.0623 56.2547 52.0447 57.9716V58.8651H42.0852ZM47.2884 75.6832C45.5365 75.6832 44.0386 75.0701 42.7947 73.8438C41.5684 72.5999 40.964 71.1108 40.9815 69.3764C40.964 67.6596 41.5684 66.188 42.7947 64.9616C44.0386 63.7353 45.5365 63.1222 47.2884 63.1222C48.9527 63.1222 50.4155 63.7353 51.6768 64.9616C52.9382 66.188 53.5777 67.6596 53.5952 69.3764C53.5777 70.5327 53.2711 71.5926 52.6754 72.5561C52.0973 73.5021 51.3352 74.2642 50.3892 74.8423C49.4432 75.4029 48.4096 75.6832 47.2884 75.6832Z" fill="white"/>
</svg>
